<svg width="164" height="40" viewBox="0 0 164 40" fill="none" xmlns="http://www.w3.org/2000/svg">
<path d="M32.22 9.005L29.455 8.305V6.8H37.47V8.305L34.565 9.04L27.915 32H24.275L19.13 15.165L14.475 32H10.835L3.555 9.04L0.825 8.305V6.8H10.765V8.305L7.405 9.04L13.18 28.71H13.32L18.08 11.14L17.625 9.04L14.895 8.305V6.8H24.135V8.305L20.915 9.04L26.655 28.71H26.795L32.22 9.005ZM49.8955 20.065C50.5489 20.065 51.1555 19.9717 51.7155 19.785C52.2989 19.575 52.7539 19.3067 53.0805 18.98C53.5472 18.49 53.9439 17.8483 54.2705 17.055C54.5972 16.2617 54.7605 15.41 54.7605 14.5C54.7605 13.6133 54.5972 12.8083 54.2705 12.085C53.9672 11.3383 53.5705 10.6733 53.0805 10.09C52.6839 9.69333 52.1939 9.39 51.6105 9.18C51.0505 8.94667 50.4322 8.83 49.7555 8.83H45.5555V20.065H49.8955ZM45.5555 22.095V29.76L48.8805 30.495V32H39.1155V30.495L42.0555 29.76V9.04L39.1155 8.305V6.8H50.7005C51.7972 6.8 52.7889 6.95167 53.6755 7.255C54.5855 7.535 55.3439 7.94333 55.9505 8.48C56.7672 9.22667 57.4089 10.1017 57.8755 11.105C58.3655 12.1083 58.6105 13.17 58.6105 14.29C58.6105 15.4567 58.3539 16.5883 57.8405 17.685C57.3505 18.7583 56.6972 19.6567 55.8805 20.38C55.2739 20.9167 54.5155 21.3367 53.6055 21.64C52.6955 21.9433 51.7155 22.095 50.6655 22.095H45.5555ZM88.5487 12.855C88.5487 13.5317 88.432 14.1733 88.1987 14.78C87.9653 15.3867 87.6387 15.935 87.2187 16.425C86.7987 16.8917 86.297 17.2883 85.7137 17.615C85.1537 17.9183 84.5353 18.1167 83.8587 18.21V18.35C85.6787 18.7467 87.1137 19.5283 88.1637 20.695C89.2137 21.8383 89.7387 23.2617 89.7387 24.965C89.7387 26.295 89.3887 27.5083 88.6887 28.605C88.012 29.7017 87.1487 30.5183 86.0987 31.055C85.772 31.2183 85.4103 31.3583 85.0137 31.475C84.6403 31.5917 84.197 31.6967 83.6837 31.79C83.1703 31.86 82.587 31.9183 81.9337 31.965C81.2803 31.9883 80.522 32 79.6587 32H69.1937V30.495L72.1337 29.76V9.04L69.1937 8.305V6.8H80.9537C83.4037 6.8 85.2937 7.395 86.6237 8.585C87.2303 9.145 87.697 9.79833 88.0237 10.545C88.3737 11.2917 88.5487 12.0617 88.5487 12.855ZM75.6337 19.855V29.9H79.4837C80.557 29.9 81.4203 29.8417 82.0737 29.725C82.727 29.6083 83.2753 29.4217 83.7187 29.165C84.3487 28.7917 84.862 28.2317 85.2587 27.485C85.6553 26.7383 85.8537 25.84 85.8537 24.79C85.8537 23.9033 85.702 23.1333 85.3987 22.48C85.0953 21.8033 84.7103 21.2667 84.2437 20.87C83.8237 20.52 83.287 20.2633 82.6337 20.1C81.9803 19.9367 81.1403 19.855 80.1137 19.855H75.6337ZM75.6337 17.825H80.0087C81.642 17.825 82.8437 17.4167 83.6137 16.6C83.9637 16.2267 84.267 15.76 84.5237 15.2C84.7803 14.6167 84.9087 13.9517 84.9087 13.205C84.9087 12.4817 84.7803 11.84 84.5237 11.28C84.267 10.6967 83.9637 10.23 83.6137 9.88C82.9137 9.18 81.7587 8.83 80.1487 8.83H75.6337V17.825ZM92.6995 14.535V13.1H98.7895V29.9L101.484 30.565V32H92.6995V30.565L95.3945 29.9V15.2L92.6995 14.535ZM94.9045 7.465C94.9045 6.78833 95.0911 6.25167 95.4645 5.855C95.8611 5.45833 96.3978 5.26 97.0745 5.26C97.7511 5.26 98.2878 5.45833 98.6845 5.855C99.0811 6.25167 99.2795 6.78833 99.2795 7.465C99.2795 8.14167 99.0811 8.67833 98.6845 9.075C98.2878 9.44833 97.7511 9.635 97.0745 9.635C96.3978 9.635 95.8611 9.44833 95.4645 9.075C95.0911 8.67833 94.9045 8.14167 94.9045 7.465ZM106.298 15.2L103.603 14.535V13.1H108.643L109.413 16.6H109.553C110.253 15.41 111.186 14.4767 112.353 13.8C113.543 13.1 114.826 12.75 116.203 12.75C117.136 12.75 117.976 12.9133 118.723 13.24C119.469 13.5667 120.064 14.0333 120.508 14.64C120.974 15.2933 121.301 16.215 121.488 17.405C121.698 18.5717 121.803 20.1583 121.803 22.165V29.9L124.498 30.565V32H116.063V30.565L118.408 29.9V22.095C118.408 20.6017 118.361 19.4817 118.268 18.735C118.198 17.965 118.058 17.37 117.848 16.95C117.264 15.8067 116.238 15.235 114.768 15.235C114.114 15.235 113.484 15.3517 112.878 15.585C112.271 15.8183 111.734 16.1333 111.268 16.53C110.754 16.9967 110.369 17.545 110.113 18.175C109.879 18.7817 109.739 19.575 109.693 20.555V29.9L112.038 30.565V32H103.603V30.565L106.298 29.9V15.2ZM143.022 32.35C143.022 33.2367 142.824 34.0533 142.427 34.8C142.054 35.5467 141.494 36.1883 140.747 36.725C140.024 37.2617 139.126 37.6817 138.052 37.985C137.002 38.2883 135.812 38.44 134.482 38.44C131.799 38.44 129.769 38.055 128.392 37.285C127.016 36.5383 126.327 35.465 126.327 34.065C126.327 32.9683 126.654 32.1283 127.307 31.545C127.961 30.9617 128.859 30.5767 130.002 30.39V30.25C128.462 29.8067 127.692 28.8967 127.692 27.52C127.692 26.7967 127.949 26.1317 128.462 25.525C128.999 24.895 129.827 24.3817 130.947 23.985C129.781 23.565 128.882 22.9117 128.252 22.025C127.646 21.1383 127.342 20.0533 127.342 18.77C127.342 17.8367 127.506 17.0083 127.832 16.285C128.182 15.5383 128.661 14.9083 129.267 14.395C129.897 13.8583 130.644 13.45 131.507 13.17C132.394 12.89 133.386 12.75 134.482 12.75C136.652 12.75 138.367 13.2867 139.627 14.36L140.817 13.94L144.037 12.4H144.632V15.48H144.037L141.587 15.2H140.397C141.074 16.1333 141.412 17.2533 141.412 18.56C141.412 20.4033 140.782 21.8617 139.522 22.935C138.262 23.985 136.501 24.51 134.237 24.51C133.981 24.51 133.736 24.51 133.502 24.51C133.292 24.4867 133.071 24.4633 132.837 24.44C130.994 24.72 130.072 25.4083 130.072 26.505C130.072 27.0417 130.282 27.415 130.702 27.625C131.122 27.8117 131.939 27.905 133.152 27.905H137.212C139.126 27.905 140.572 28.2667 141.552 28.99C142.532 29.69 143.022 30.81 143.022 32.35ZM133.397 30.6C131.834 30.6 130.702 30.8683 130.002 31.405C129.302 31.9417 128.952 32.6417 128.952 33.505C128.952 35.6283 130.772 36.69 134.412 36.69C136.396 36.69 137.901 36.3867 138.927 35.78C139.977 35.1967 140.502 34.31 140.502 33.12C140.502 32.1867 140.141 31.5333 139.417 31.16C138.717 30.7867 137.469 30.6 135.672 30.6H133.397ZM130.422 18.63C130.422 20.03 130.737 21.0917 131.367 21.815C131.997 22.5383 133.001 22.9 134.377 22.9C135.754 22.9 136.757 22.5383 137.387 21.815C138.017 21.0917 138.332 20.03 138.332 18.63C138.332 17.23 138.017 16.1683 137.387 15.445C136.757 14.7217 135.754 14.36 134.377 14.36C133.001 14.36 131.997 14.7217 131.367 15.445C130.737 16.1683 130.422 17.23 130.422 18.63ZM150.042 22.76C150.042 24.4633 150.276 25.875 150.742 26.995C151.209 28.0917 151.862 28.8733 152.702 29.34C153.566 29.7833 154.511 30.005 155.537 30.005C156.657 30.005 157.661 29.7833 158.547 29.34C159.457 28.8733 160.274 28.2433 160.997 27.45L162.117 28.29C161.697 28.85 161.242 29.375 160.752 29.865C160.286 30.355 159.749 30.7867 159.142 31.16C158.536 31.5333 157.859 31.825 157.112 32.035C156.366 32.245 155.537 32.35 154.627 32.35C153.017 32.35 151.594 32.0117 150.357 31.335C149.121 30.635 148.176 29.62 147.522 28.29C147.172 27.5667 146.916 26.7733 146.752 25.91C146.589 25.0233 146.507 24.0667 146.507 23.04C146.507 19.75 147.254 17.2183 148.747 15.445C150.241 13.6483 152.294 12.75 154.907 12.75C157.311 12.75 159.154 13.4967 160.437 14.99C161.721 16.46 162.362 18.5017 162.362 21.115C162.362 21.3483 162.351 21.57 162.327 21.78C162.327 21.9667 162.304 22.2933 162.257 22.76H150.042ZM154.697 14.64C151.897 14.64 150.357 16.775 150.077 21.045H158.827V19.89C158.827 18.21 158.466 16.915 157.742 16.005C157.042 15.095 156.027 14.64 154.697 14.64Z" fill="#F7F7F7"/>
<rect x="94" y="5" width="6" height="5" rx="2.5" fill="#22272D"/>
<rect x="94" y="5" width="5" height="5" rx="2.5" fill="#FFC046"/>
</svg>
